<mxfile host="app.diagrams.net" modified="2023-11-07T04:38:00.166Z" agent="Mozilla/5.0 (Windows NT 10.0; Win64; x64) AppleWebKit/537.36 (KHTML, like Gecko) Chrome/119.0.0.0 Safari/537.36" etag="HGmhWhU8tNPJgjIulHCT" version="21.8.2" type="device">
  <diagram id="C5RBs43oDa-KdzZeNtuy" name="Page-1">
    <mxGraphModel dx="1366" dy="1942" grid="1" gridSize="10" guides="1" tooltips="1" connect="1" arrows="1" fold="1" page="1" pageScale="1" pageWidth="827" pageHeight="1169" math="0" shadow="0">
      <root>
        <mxCell id="WIyWlLk6GJQsqaUBKTNV-0" />
        <mxCell id="WIyWlLk6GJQsqaUBKTNV-1" parent="WIyWlLk6GJQsqaUBKTNV-0" />
        <mxCell id="wKArxqeJ5DqCfV5X6drG-113" style="edgeStyle=orthogonalEdgeStyle;rounded=0;orthogonalLoop=1;jettySize=auto;html=1;entryX=0.5;entryY=0;entryDx=0;entryDy=0;" edge="1" parent="WIyWlLk6GJQsqaUBKTNV-1" source="zkfFHV4jXpPFQw0GAbJ--0" target="wKArxqeJ5DqCfV5X6drG-90">
          <mxGeometry relative="1" as="geometry" />
        </mxCell>
        <mxCell id="zkfFHV4jXpPFQw0GAbJ--0" value="Estacionamiento" style="swimlane;fontStyle=2;align=center;verticalAlign=top;childLayout=stackLayout;horizontal=1;startSize=26;horizontalStack=0;resizeParent=1;resizeLast=0;collapsible=1;marginBottom=0;rounded=0;shadow=0;strokeWidth=1;" parent="WIyWlLk6GJQsqaUBKTNV-1" vertex="1">
          <mxGeometry x="30" y="-80" width="670" height="480" as="geometry">
            <mxRectangle x="230" y="140" width="160" height="26" as="alternateBounds" />
          </mxGeometry>
        </mxCell>
        <mxCell id="zkfFHV4jXpPFQw0GAbJ--1" value="+ lista_usuario : list[Usuario]" style="text;align=left;verticalAlign=top;spacingLeft=4;spacingRight=4;overflow=hidden;rotatable=0;points=[[0,0.5],[1,0.5]];portConstraint=eastwest;" parent="zkfFHV4jXpPFQw0GAbJ--0" vertex="1">
          <mxGeometry y="26" width="670" height="26" as="geometry" />
        </mxCell>
        <mxCell id="zkfFHV4jXpPFQw0GAbJ--2" value="+ lista_vehiculos_en_parqueadero : list[Vehiculo]" style="text;align=left;verticalAlign=top;spacingLeft=4;spacingRight=4;overflow=hidden;rotatable=0;points=[[0,0.5],[1,0.5]];portConstraint=eastwest;rounded=0;shadow=0;html=0;" parent="zkfFHV4jXpPFQw0GAbJ--0" vertex="1">
          <mxGeometry y="52" width="670" height="26" as="geometry" />
        </mxCell>
        <mxCell id="zkfFHV4jXpPFQw0GAbJ--3" value="+ usuario_actual : Usuario" style="text;align=left;verticalAlign=top;spacingLeft=4;spacingRight=4;overflow=hidden;rotatable=0;points=[[0,0.5],[1,0.5]];portConstraint=eastwest;rounded=0;shadow=0;html=0;" parent="zkfFHV4jXpPFQw0GAbJ--0" vertex="1">
          <mxGeometry y="78" width="670" height="26" as="geometry" />
        </mxCell>
        <mxCell id="wKArxqeJ5DqCfV5X6drG-0" value="+ lista_vehiculos_con_reserva : list[Vehiculo]" style="text;align=left;verticalAlign=top;spacingLeft=4;spacingRight=4;overflow=hidden;rotatable=0;points=[[0,0.5],[1,0.5]];portConstraint=eastwest;rounded=0;shadow=0;html=0;" vertex="1" parent="zkfFHV4jXpPFQw0GAbJ--0">
          <mxGeometry y="104" width="670" height="26" as="geometry" />
        </mxCell>
        <mxCell id="zkfFHV4jXpPFQw0GAbJ--4" value="" style="line;html=1;strokeWidth=1;align=left;verticalAlign=middle;spacingTop=-1;spacingLeft=3;spacingRight=3;rotatable=0;labelPosition=right;points=[];portConstraint=eastwest;" parent="zkfFHV4jXpPFQw0GAbJ--0" vertex="1">
          <mxGeometry y="130" width="670" height="8" as="geometry" />
        </mxCell>
        <mxCell id="zkfFHV4jXpPFQw0GAbJ--5" value="+ registrar_usuario(nombre_usuario,contraseña,filas,columnas)" style="text;align=left;verticalAlign=top;spacingLeft=4;spacingRight=4;overflow=hidden;rotatable=0;points=[[0,0.5],[1,0.5]];portConstraint=eastwest;" parent="zkfFHV4jXpPFQw0GAbJ--0" vertex="1">
          <mxGeometry y="138" width="670" height="26" as="geometry" />
        </mxCell>
        <mxCell id="wKArxqeJ5DqCfV5X6drG-2" value="+ iniciar_sesion_usuario(nombre_usuario,contraseña)&#xa;" style="text;align=left;verticalAlign=top;spacingLeft=4;spacingRight=4;overflow=hidden;rotatable=0;points=[[0,0.5],[1,0.5]];portConstraint=eastwest;" vertex="1" parent="zkfFHV4jXpPFQw0GAbJ--0">
          <mxGeometry y="164" width="670" height="26" as="geometry" />
        </mxCell>
        <mxCell id="wKArxqeJ5DqCfV5X6drG-3" value="+ cerrar_sesion()" style="text;align=left;verticalAlign=top;spacingLeft=4;spacingRight=4;overflow=hidden;rotatable=0;points=[[0,0.5],[1,0.5]];portConstraint=eastwest;" vertex="1" parent="zkfFHV4jXpPFQw0GAbJ--0">
          <mxGeometry y="190" width="670" height="26" as="geometry" />
        </mxCell>
        <mxCell id="wKArxqeJ5DqCfV5X6drG-4" value="+ mostrar_parqueadero()" style="text;align=left;verticalAlign=top;spacingLeft=4;spacingRight=4;overflow=hidden;rotatable=0;points=[[0,0.5],[1,0.5]];portConstraint=eastwest;" vertex="1" parent="zkfFHV4jXpPFQw0GAbJ--0">
          <mxGeometry y="216" width="670" height="26" as="geometry" />
        </mxCell>
        <mxCell id="wKArxqeJ5DqCfV5X6drG-15" value="+ ingresar_vehiculo_parqueadero(placa_vehiculo,hora_ingreso,indice_fila,indice_columna)" style="text;align=left;verticalAlign=top;spacingLeft=4;spacingRight=4;overflow=hidden;rotatable=0;points=[[0,0.5],[1,0.5]];portConstraint=eastwest;" vertex="1" parent="zkfFHV4jXpPFQw0GAbJ--0">
          <mxGeometry y="242" width="670" height="26" as="geometry" />
        </mxCell>
        <mxCell id="wKArxqeJ5DqCfV5X6drG-16" value="+ calcular_valor_a_pagar(vehiculo,hora_salida)" style="text;align=left;verticalAlign=top;spacingLeft=4;spacingRight=4;overflow=hidden;rotatable=0;points=[[0,0.5],[1,0.5]];portConstraint=eastwest;" vertex="1" parent="zkfFHV4jXpPFQw0GAbJ--0">
          <mxGeometry y="268" width="670" height="26" as="geometry" />
        </mxCell>
        <mxCell id="wKArxqeJ5DqCfV5X6drG-17" value="+ calcular_valor_a_pagar_reserva(hora_inicio_reserva,hora_fin_reserva)" style="text;align=left;verticalAlign=top;spacingLeft=4;spacingRight=4;overflow=hidden;rotatable=0;points=[[0,0.5],[1,0.5]];portConstraint=eastwest;" vertex="1" parent="zkfFHV4jXpPFQw0GAbJ--0">
          <mxGeometry y="294" width="670" height="26" as="geometry" />
        </mxCell>
        <mxCell id="wKArxqeJ5DqCfV5X6drG-18" value="+ retirar_vehiculo_parqueadero(placa_vehiculo,hora_salida,decision_factura)" style="text;align=left;verticalAlign=top;spacingLeft=4;spacingRight=4;overflow=hidden;rotatable=0;points=[[0,0.5],[1,0.5]];portConstraint=eastwest;" vertex="1" parent="zkfFHV4jXpPFQw0GAbJ--0">
          <mxGeometry y="320" width="670" height="26" as="geometry" />
        </mxCell>
        <mxCell id="wKArxqeJ5DqCfV5X6drG-19" value="+ reservar_vehiculo_parqueadero(hora_inicio_reserva,hora_fin_reserva,placa,indice_fila,indice_columna" style="text;align=left;verticalAlign=top;spacingLeft=4;spacingRight=4;overflow=hidden;rotatable=0;points=[[0,0.5],[1,0.5]];portConstraint=eastwest;" vertex="1" parent="zkfFHV4jXpPFQw0GAbJ--0">
          <mxGeometry y="346" width="670" height="26" as="geometry" />
        </mxCell>
        <mxCell id="wKArxqeJ5DqCfV5X6drG-21" value="+ generar_factura(vehiculo,hora_salida,valor_a_cobrar)" style="text;align=left;verticalAlign=top;spacingLeft=4;spacingRight=4;overflow=hidden;rotatable=0;points=[[0,0.5],[1,0.5]];portConstraint=eastwest;" vertex="1" parent="zkfFHV4jXpPFQw0GAbJ--0">
          <mxGeometry y="372" width="670" height="26" as="geometry" />
        </mxCell>
        <mxCell id="wKArxqeJ5DqCfV5X6drG-22" value="+ guardar_estado(nombre_archivo)" style="text;align=left;verticalAlign=top;spacingLeft=4;spacingRight=4;overflow=hidden;rotatable=0;points=[[0,0.5],[1,0.5]];portConstraint=eastwest;" vertex="1" parent="zkfFHV4jXpPFQw0GAbJ--0">
          <mxGeometry y="398" width="670" height="26" as="geometry" />
        </mxCell>
        <mxCell id="wKArxqeJ5DqCfV5X6drG-24" value="+ serializar_objetos(obj)" style="text;align=left;verticalAlign=top;spacingLeft=4;spacingRight=4;overflow=hidden;rotatable=0;points=[[0,0.5],[1,0.5]];portConstraint=eastwest;" vertex="1" parent="zkfFHV4jXpPFQw0GAbJ--0">
          <mxGeometry y="424" width="670" height="26" as="geometry" />
        </mxCell>
        <mxCell id="wKArxqeJ5DqCfV5X6drG-25" value="+ cargar_estado(nombre_archivo)" style="text;align=left;verticalAlign=top;spacingLeft=4;spacingRight=4;overflow=hidden;rotatable=0;points=[[0,0.5],[1,0.5]];portConstraint=eastwest;" vertex="1" parent="zkfFHV4jXpPFQw0GAbJ--0">
          <mxGeometry y="450" width="670" height="26" as="geometry" />
        </mxCell>
        <mxCell id="wKArxqeJ5DqCfV5X6drG-114" style="edgeStyle=orthogonalEdgeStyle;rounded=0;orthogonalLoop=1;jettySize=auto;html=1;entryX=0.5;entryY=0;entryDx=0;entryDy=0;" edge="1" parent="WIyWlLk6GJQsqaUBKTNV-1" source="zkfFHV4jXpPFQw0GAbJ--13" target="zkfFHV4jXpPFQw0GAbJ--0">
          <mxGeometry relative="1" as="geometry" />
        </mxCell>
        <mxCell id="zkfFHV4jXpPFQw0GAbJ--13" value="FormatoInvalidoError(Exception)" style="swimlane;fontStyle=0;align=center;verticalAlign=top;childLayout=stackLayout;horizontal=1;startSize=26;horizontalStack=0;resizeParent=1;resizeLast=0;collapsible=1;marginBottom=0;rounded=0;shadow=0;strokeWidth=1;" parent="WIyWlLk6GJQsqaUBKTNV-1" vertex="1">
          <mxGeometry x="370" y="-370" width="200" height="70" as="geometry">
            <mxRectangle x="340" y="380" width="170" height="26" as="alternateBounds" />
          </mxGeometry>
        </mxCell>
        <mxCell id="wKArxqeJ5DqCfV5X6drG-27" style="edgeStyle=orthogonalEdgeStyle;rounded=0;orthogonalLoop=1;jettySize=auto;html=1;exitX=0;exitY=0.5;exitDx=0;exitDy=0;" edge="1" parent="zkfFHV4jXpPFQw0GAbJ--13" source="zkfFHV4jXpPFQw0GAbJ--14">
          <mxGeometry relative="1" as="geometry">
            <mxPoint x="-10" y="39" as="targetPoint" />
          </mxGeometry>
        </mxCell>
        <mxCell id="zkfFHV4jXpPFQw0GAbJ--14" value="+ mensaje : str" style="text;align=left;verticalAlign=top;spacingLeft=4;spacingRight=4;overflow=hidden;rotatable=0;points=[[0,0.5],[1,0.5]];portConstraint=eastwest;" parent="zkfFHV4jXpPFQw0GAbJ--13" vertex="1">
          <mxGeometry y="26" width="200" height="26" as="geometry" />
        </mxCell>
        <mxCell id="zkfFHV4jXpPFQw0GAbJ--15" value="" style="line;html=1;strokeWidth=1;align=left;verticalAlign=middle;spacingTop=-1;spacingLeft=3;spacingRight=3;rotatable=0;labelPosition=right;points=[];portConstraint=eastwest;" parent="zkfFHV4jXpPFQw0GAbJ--13" vertex="1">
          <mxGeometry y="52" width="200" height="8" as="geometry" />
        </mxCell>
        <mxCell id="wKArxqeJ5DqCfV5X6drG-28" value="Parqueadero" style="swimlane;fontStyle=2;align=center;verticalAlign=top;childLayout=stackLayout;horizontal=1;startSize=26;horizontalStack=0;resizeParent=1;resizeLast=0;collapsible=1;marginBottom=0;rounded=0;shadow=0;strokeWidth=1;" vertex="1" parent="WIyWlLk6GJQsqaUBKTNV-1">
          <mxGeometry x="40" y="-360" width="270" height="160" as="geometry">
            <mxRectangle x="230" y="140" width="160" height="26" as="alternateBounds" />
          </mxGeometry>
        </mxCell>
        <mxCell id="wKArxqeJ5DqCfV5X6drG-29" value="+ filas : int" style="text;align=left;verticalAlign=top;spacingLeft=4;spacingRight=4;overflow=hidden;rotatable=0;points=[[0,0.5],[1,0.5]];portConstraint=eastwest;" vertex="1" parent="wKArxqeJ5DqCfV5X6drG-28">
          <mxGeometry y="26" width="270" height="26" as="geometry" />
        </mxCell>
        <mxCell id="wKArxqeJ5DqCfV5X6drG-30" value="+ columnas : int" style="text;align=left;verticalAlign=top;spacingLeft=4;spacingRight=4;overflow=hidden;rotatable=0;points=[[0,0.5],[1,0.5]];portConstraint=eastwest;rounded=0;shadow=0;html=0;" vertex="1" parent="wKArxqeJ5DqCfV5X6drG-28">
          <mxGeometry y="52" width="270" height="26" as="geometry" />
        </mxCell>
        <mxCell id="wKArxqeJ5DqCfV5X6drG-31" value="+ parqueadero : list[list[Vehiculo]]" style="text;align=left;verticalAlign=top;spacingLeft=4;spacingRight=4;overflow=hidden;rotatable=0;points=[[0,0.5],[1,0.5]];portConstraint=eastwest;rounded=0;shadow=0;html=0;" vertex="1" parent="wKArxqeJ5DqCfV5X6drG-28">
          <mxGeometry y="78" width="270" height="26" as="geometry" />
        </mxCell>
        <mxCell id="wKArxqeJ5DqCfV5X6drG-33" value="" style="line;html=1;strokeWidth=1;align=left;verticalAlign=middle;spacingTop=-1;spacingLeft=3;spacingRight=3;rotatable=0;labelPosition=right;points=[];portConstraint=eastwest;" vertex="1" parent="wKArxqeJ5DqCfV5X6drG-28">
          <mxGeometry y="104" width="270" height="8" as="geometry" />
        </mxCell>
        <mxCell id="wKArxqeJ5DqCfV5X6drG-34" value="+ mostrar_parqueadero()" style="text;align=left;verticalAlign=top;spacingLeft=4;spacingRight=4;overflow=hidden;rotatable=0;points=[[0,0.5],[1,0.5]];portConstraint=eastwest;" vertex="1" parent="wKArxqeJ5DqCfV5X6drG-28">
          <mxGeometry y="112" width="270" height="26" as="geometry" />
        </mxCell>
        <mxCell id="wKArxqeJ5DqCfV5X6drG-122" style="edgeStyle=orthogonalEdgeStyle;rounded=0;orthogonalLoop=1;jettySize=auto;html=1;entryX=1;entryY=0.5;entryDx=0;entryDy=0;endArrow=block;endFill=0;" edge="1" parent="WIyWlLk6GJQsqaUBKTNV-1" source="wKArxqeJ5DqCfV5X6drG-47" target="wKArxqeJ5DqCfV5X6drG-60">
          <mxGeometry relative="1" as="geometry" />
        </mxCell>
        <mxCell id="wKArxqeJ5DqCfV5X6drG-47" value="UsuarioError(Exception)" style="swimlane;fontStyle=0;align=center;verticalAlign=top;childLayout=stackLayout;horizontal=1;startSize=26;horizontalStack=0;resizeParent=1;resizeLast=0;collapsible=1;marginBottom=0;rounded=0;shadow=0;strokeWidth=1;" vertex="1" parent="WIyWlLk6GJQsqaUBKTNV-1">
          <mxGeometry x="1290" y="80" width="200" height="70" as="geometry">
            <mxRectangle x="340" y="380" width="170" height="26" as="alternateBounds" />
          </mxGeometry>
        </mxCell>
        <mxCell id="wKArxqeJ5DqCfV5X6drG-48" style="edgeStyle=orthogonalEdgeStyle;rounded=0;orthogonalLoop=1;jettySize=auto;html=1;exitX=0;exitY=0.5;exitDx=0;exitDy=0;" edge="1" parent="wKArxqeJ5DqCfV5X6drG-47" source="wKArxqeJ5DqCfV5X6drG-49">
          <mxGeometry relative="1" as="geometry">
            <mxPoint x="-10" y="39" as="targetPoint" />
          </mxGeometry>
        </mxCell>
        <mxCell id="wKArxqeJ5DqCfV5X6drG-49" value="+ usuario : Usuario" style="text;align=left;verticalAlign=top;spacingLeft=4;spacingRight=4;overflow=hidden;rotatable=0;points=[[0,0.5],[1,0.5]];portConstraint=eastwest;" vertex="1" parent="wKArxqeJ5DqCfV5X6drG-47">
          <mxGeometry y="26" width="200" height="26" as="geometry" />
        </mxCell>
        <mxCell id="wKArxqeJ5DqCfV5X6drG-50" value="" style="line;html=1;strokeWidth=1;align=left;verticalAlign=middle;spacingTop=-1;spacingLeft=3;spacingRight=3;rotatable=0;labelPosition=right;points=[];portConstraint=eastwest;" vertex="1" parent="wKArxqeJ5DqCfV5X6drG-47">
          <mxGeometry y="52" width="200" height="8" as="geometry" />
        </mxCell>
        <mxCell id="wKArxqeJ5DqCfV5X6drG-55" value="UsuarioExistenteError(UsuarioError)" style="swimlane;fontStyle=2;align=center;verticalAlign=top;childLayout=stackLayout;horizontal=1;startSize=26;horizontalStack=0;resizeParent=1;resizeLast=0;collapsible=1;marginBottom=0;rounded=0;shadow=0;strokeWidth=1;" vertex="1" parent="WIyWlLk6GJQsqaUBKTNV-1">
          <mxGeometry x="915" y="190" width="260" height="70" as="geometry">
            <mxRectangle x="230" y="140" width="160" height="26" as="alternateBounds" />
          </mxGeometry>
        </mxCell>
        <mxCell id="wKArxqeJ5DqCfV5X6drG-59" value="" style="line;html=1;strokeWidth=1;align=left;verticalAlign=middle;spacingTop=-1;spacingLeft=3;spacingRight=3;rotatable=0;labelPosition=right;points=[];portConstraint=eastwest;" vertex="1" parent="wKArxqeJ5DqCfV5X6drG-55">
          <mxGeometry y="26" width="260" height="8" as="geometry" />
        </mxCell>
        <mxCell id="wKArxqeJ5DqCfV5X6drG-60" value="+ __str__ ()" style="text;align=left;verticalAlign=top;spacingLeft=4;spacingRight=4;overflow=hidden;rotatable=0;points=[[0,0.5],[1,0.5]];portConstraint=eastwest;" vertex="1" parent="wKArxqeJ5DqCfV5X6drG-55">
          <mxGeometry y="34" width="260" height="26" as="geometry" />
        </mxCell>
        <mxCell id="wKArxqeJ5DqCfV5X6drG-61" value="Usuario" style="swimlane;fontStyle=2;align=center;verticalAlign=top;childLayout=stackLayout;horizontal=1;startSize=26;horizontalStack=0;resizeParent=1;resizeLast=0;collapsible=1;marginBottom=0;rounded=0;shadow=0;strokeWidth=1;" vertex="1" parent="WIyWlLk6GJQsqaUBKTNV-1">
          <mxGeometry x="850" y="350" width="390" height="250" as="geometry">
            <mxRectangle x="230" y="140" width="160" height="26" as="alternateBounds" />
          </mxGeometry>
        </mxCell>
        <mxCell id="wKArxqeJ5DqCfV5X6drG-62" value="+ nombre_usuario : str" style="text;align=left;verticalAlign=top;spacingLeft=4;spacingRight=4;overflow=hidden;rotatable=0;points=[[0,0.5],[1,0.5]];portConstraint=eastwest;" vertex="1" parent="wKArxqeJ5DqCfV5X6drG-61">
          <mxGeometry y="26" width="390" height="26" as="geometry" />
        </mxCell>
        <mxCell id="wKArxqeJ5DqCfV5X6drG-63" value="+ contraseña : str" style="text;align=left;verticalAlign=top;spacingLeft=4;spacingRight=4;overflow=hidden;rotatable=0;points=[[0,0.5],[1,0.5]];portConstraint=eastwest;rounded=0;shadow=0;html=0;" vertex="1" parent="wKArxqeJ5DqCfV5X6drG-61">
          <mxGeometry y="52" width="390" height="26" as="geometry" />
        </mxCell>
        <mxCell id="wKArxqeJ5DqCfV5X6drG-64" value="+ parqueadero_asociado : Parqueadero" style="text;align=left;verticalAlign=top;spacingLeft=4;spacingRight=4;overflow=hidden;rotatable=0;points=[[0,0.5],[1,0.5]];portConstraint=eastwest;rounded=0;shadow=0;html=0;" vertex="1" parent="wKArxqeJ5DqCfV5X6drG-61">
          <mxGeometry y="78" width="390" height="26" as="geometry" />
        </mxCell>
        <mxCell id="wKArxqeJ5DqCfV5X6drG-66" value="" style="line;html=1;strokeWidth=1;align=left;verticalAlign=middle;spacingTop=-1;spacingLeft=3;spacingRight=3;rotatable=0;labelPosition=right;points=[];portConstraint=eastwest;" vertex="1" parent="wKArxqeJ5DqCfV5X6drG-61">
          <mxGeometry y="104" width="390" height="8" as="geometry" />
        </mxCell>
        <mxCell id="wKArxqeJ5DqCfV5X6drG-67" value="+ inicializar_parqueadero(filas,columnas)" style="text;align=left;verticalAlign=top;spacingLeft=4;spacingRight=4;overflow=hidden;rotatable=0;points=[[0,0.5],[1,0.5]];portConstraint=eastwest;" vertex="1" parent="wKArxqeJ5DqCfV5X6drG-61">
          <mxGeometry y="112" width="390" height="26" as="geometry" />
        </mxCell>
        <mxCell id="wKArxqeJ5DqCfV5X6drG-68" value="+ ingresar_vehiculo_a_parqueadero(indice_fila,indice_columna,vehiculo)" style="text;align=left;verticalAlign=top;spacingLeft=4;spacingRight=4;overflow=hidden;rotatable=0;points=[[0,0.5],[1,0.5]];portConstraint=eastwest;" vertex="1" parent="wKArxqeJ5DqCfV5X6drG-61">
          <mxGeometry y="138" width="390" height="26" as="geometry" />
        </mxCell>
        <mxCell id="wKArxqeJ5DqCfV5X6drG-69" value="+ retirar_vehiculo_parqueadero(placa_vehiculo)" style="text;align=left;verticalAlign=top;spacingLeft=4;spacingRight=4;overflow=hidden;rotatable=0;points=[[0,0.5],[1,0.5]];portConstraint=eastwest;" vertex="1" parent="wKArxqeJ5DqCfV5X6drG-61">
          <mxGeometry y="164" width="390" height="26" as="geometry" />
        </mxCell>
        <mxCell id="wKArxqeJ5DqCfV5X6drG-70" value="+ reservar_vehiculo_parqueadero(vehiculo,indice_fila,indice_columna)" style="text;align=left;verticalAlign=top;spacingLeft=4;spacingRight=4;overflow=hidden;rotatable=0;points=[[0,0.5],[1,0.5]];portConstraint=eastwest;" vertex="1" parent="wKArxqeJ5DqCfV5X6drG-61">
          <mxGeometry y="190" width="390" height="26" as="geometry" />
        </mxCell>
        <mxCell id="wKArxqeJ5DqCfV5X6drG-71" value="+ verificar_posicion(indice_fila,indice_columna)" style="text;align=left;verticalAlign=top;spacingLeft=4;spacingRight=4;overflow=hidden;rotatable=0;points=[[0,0.5],[1,0.5]];portConstraint=eastwest;" vertex="1" parent="wKArxqeJ5DqCfV5X6drG-61">
          <mxGeometry y="216" width="390" height="26" as="geometry" />
        </mxCell>
        <mxCell id="wKArxqeJ5DqCfV5X6drG-84" value="Vehiculo" style="swimlane;fontStyle=2;align=center;verticalAlign=top;childLayout=stackLayout;horizontal=1;startSize=26;horizontalStack=0;resizeParent=1;resizeLast=0;collapsible=1;marginBottom=0;rounded=0;shadow=0;strokeWidth=1;" vertex="1" parent="WIyWlLk6GJQsqaUBKTNV-1">
          <mxGeometry x="930" y="-190" width="270" height="160" as="geometry">
            <mxRectangle x="230" y="140" width="160" height="26" as="alternateBounds" />
          </mxGeometry>
        </mxCell>
        <mxCell id="wKArxqeJ5DqCfV5X6drG-85" value="+ placa_vehiculo:str" style="text;align=left;verticalAlign=top;spacingLeft=4;spacingRight=4;overflow=hidden;rotatable=0;points=[[0,0.5],[1,0.5]];portConstraint=eastwest;" vertex="1" parent="wKArxqeJ5DqCfV5X6drG-84">
          <mxGeometry y="26" width="270" height="26" as="geometry" />
        </mxCell>
        <mxCell id="wKArxqeJ5DqCfV5X6drG-86" value="+ celda_ocupada: tuple[int,int}" style="text;align=left;verticalAlign=top;spacingLeft=4;spacingRight=4;overflow=hidden;rotatable=0;points=[[0,0.5],[1,0.5]];portConstraint=eastwest;rounded=0;shadow=0;html=0;" vertex="1" parent="wKArxqeJ5DqCfV5X6drG-84">
          <mxGeometry y="52" width="270" height="26" as="geometry" />
        </mxCell>
        <mxCell id="wKArxqeJ5DqCfV5X6drG-87" value="+ hora_ingreso: str" style="text;align=left;verticalAlign=top;spacingLeft=4;spacingRight=4;overflow=hidden;rotatable=0;points=[[0,0.5],[1,0.5]];portConstraint=eastwest;rounded=0;shadow=0;html=0;" vertex="1" parent="wKArxqeJ5DqCfV5X6drG-84">
          <mxGeometry y="78" width="270" height="26" as="geometry" />
        </mxCell>
        <mxCell id="wKArxqeJ5DqCfV5X6drG-88" value="" style="line;html=1;strokeWidth=1;align=left;verticalAlign=middle;spacingTop=-1;spacingLeft=3;spacingRight=3;rotatable=0;labelPosition=right;points=[];portConstraint=eastwest;" vertex="1" parent="wKArxqeJ5DqCfV5X6drG-84">
          <mxGeometry y="104" width="270" height="8" as="geometry" />
        </mxCell>
        <mxCell id="wKArxqeJ5DqCfV5X6drG-89" value="+ __str__()" style="text;align=left;verticalAlign=top;spacingLeft=4;spacingRight=4;overflow=hidden;rotatable=0;points=[[0,0.5],[1,0.5]];portConstraint=eastwest;" vertex="1" parent="wKArxqeJ5DqCfV5X6drG-84">
          <mxGeometry y="112" width="270" height="26" as="geometry" />
        </mxCell>
        <mxCell id="wKArxqeJ5DqCfV5X6drG-90" value="InterfazGrafica" style="swimlane;fontStyle=2;align=center;verticalAlign=top;childLayout=stackLayout;horizontal=1;startSize=26;horizontalStack=0;resizeParent=1;resizeLast=0;collapsible=1;marginBottom=0;rounded=0;shadow=0;strokeWidth=1;" vertex="1" parent="WIyWlLk6GJQsqaUBKTNV-1">
          <mxGeometry x="30" y="440" width="670" height="606" as="geometry">
            <mxRectangle x="230" y="140" width="160" height="26" as="alternateBounds" />
          </mxGeometry>
        </mxCell>
        <mxCell id="wKArxqeJ5DqCfV5X6drG-91" value="+ estacionamiento : Estacionamiento" style="text;align=left;verticalAlign=top;spacingLeft=4;spacingRight=4;overflow=hidden;rotatable=0;points=[[0,0.5],[1,0.5]];portConstraint=eastwest;" vertex="1" parent="wKArxqeJ5DqCfV5X6drG-90">
          <mxGeometry y="26" width="670" height="26" as="geometry" />
        </mxCell>
        <mxCell id="wKArxqeJ5DqCfV5X6drG-92" value="+ root" style="text;align=left;verticalAlign=top;spacingLeft=4;spacingRight=4;overflow=hidden;rotatable=0;points=[[0,0.5],[1,0.5]];portConstraint=eastwest;rounded=0;shadow=0;html=0;" vertex="1" parent="wKArxqeJ5DqCfV5X6drG-90">
          <mxGeometry y="52" width="670" height="26" as="geometry" />
        </mxCell>
        <mxCell id="wKArxqeJ5DqCfV5X6drG-93" value="+ frame" style="text;align=left;verticalAlign=top;spacingLeft=4;spacingRight=4;overflow=hidden;rotatable=0;points=[[0,0.5],[1,0.5]];portConstraint=eastwest;rounded=0;shadow=0;html=0;" vertex="1" parent="wKArxqeJ5DqCfV5X6drG-90">
          <mxGeometry y="78" width="670" height="26" as="geometry" />
        </mxCell>
        <mxCell id="wKArxqeJ5DqCfV5X6drG-94" value="+ parqueadero_labels : list[]" style="text;align=left;verticalAlign=top;spacingLeft=4;spacingRight=4;overflow=hidden;rotatable=0;points=[[0,0.5],[1,0.5]];portConstraint=eastwest;rounded=0;shadow=0;html=0;" vertex="1" parent="wKArxqeJ5DqCfV5X6drG-90">
          <mxGeometry y="104" width="670" height="26" as="geometry" />
        </mxCell>
        <mxCell id="wKArxqeJ5DqCfV5X6drG-109" value="+ mostrar_menu_inicial()" style="text;align=left;verticalAlign=top;spacingLeft=4;spacingRight=4;overflow=hidden;rotatable=0;points=[[0,0.5],[1,0.5]];portConstraint=eastwest;rounded=0;shadow=0;html=0;" vertex="1" parent="wKArxqeJ5DqCfV5X6drG-90">
          <mxGeometry y="130" width="670" height="26" as="geometry" />
        </mxCell>
        <mxCell id="wKArxqeJ5DqCfV5X6drG-95" value="" style="line;html=1;strokeWidth=1;align=left;verticalAlign=middle;spacingTop=-1;spacingLeft=3;spacingRight=3;rotatable=0;labelPosition=right;points=[];portConstraint=eastwest;" vertex="1" parent="wKArxqeJ5DqCfV5X6drG-90">
          <mxGeometry y="156" width="670" height="8" as="geometry" />
        </mxCell>
        <mxCell id="wKArxqeJ5DqCfV5X6drG-96" value="+ mostrar_parqueadero_usuario()" style="text;align=left;verticalAlign=top;spacingLeft=4;spacingRight=4;overflow=hidden;rotatable=0;points=[[0,0.5],[1,0.5]];portConstraint=eastwest;" vertex="1" parent="wKArxqeJ5DqCfV5X6drG-90">
          <mxGeometry y="164" width="670" height="26" as="geometry" />
        </mxCell>
        <mxCell id="wKArxqeJ5DqCfV5X6drG-97" value="+ mostrar_menu_inicial()" style="text;align=left;verticalAlign=top;spacingLeft=4;spacingRight=4;overflow=hidden;rotatable=0;points=[[0,0.5],[1,0.5]];portConstraint=eastwest;" vertex="1" parent="wKArxqeJ5DqCfV5X6drG-90">
          <mxGeometry y="190" width="670" height="26" as="geometry" />
        </mxCell>
        <mxCell id="wKArxqeJ5DqCfV5X6drG-98" value="+ registrar_usuario()" style="text;align=left;verticalAlign=top;spacingLeft=4;spacingRight=4;overflow=hidden;rotatable=0;points=[[0,0.5],[1,0.5]];portConstraint=eastwest;" vertex="1" parent="wKArxqeJ5DqCfV5X6drG-90">
          <mxGeometry y="216" width="670" height="26" as="geometry" />
        </mxCell>
        <mxCell id="wKArxqeJ5DqCfV5X6drG-99" value="+ registrar_usuario_accion()" style="text;align=left;verticalAlign=top;spacingLeft=4;spacingRight=4;overflow=hidden;rotatable=0;points=[[0,0.5],[1,0.5]];portConstraint=eastwest;" vertex="1" parent="wKArxqeJ5DqCfV5X6drG-90">
          <mxGeometry y="242" width="670" height="26" as="geometry" />
        </mxCell>
        <mxCell id="wKArxqeJ5DqCfV5X6drG-100" value="+ iniciar_sesion()" style="text;align=left;verticalAlign=top;spacingLeft=4;spacingRight=4;overflow=hidden;rotatable=0;points=[[0,0.5],[1,0.5]];portConstraint=eastwest;" vertex="1" parent="wKArxqeJ5DqCfV5X6drG-90">
          <mxGeometry y="268" width="670" height="26" as="geometry" />
        </mxCell>
        <mxCell id="wKArxqeJ5DqCfV5X6drG-101" value="+ iniciar_sesion_accion()" style="text;align=left;verticalAlign=top;spacingLeft=4;spacingRight=4;overflow=hidden;rotatable=0;points=[[0,0.5],[1,0.5]];portConstraint=eastwest;" vertex="1" parent="wKArxqeJ5DqCfV5X6drG-90">
          <mxGeometry y="294" width="670" height="26" as="geometry" />
        </mxCell>
        <mxCell id="wKArxqeJ5DqCfV5X6drG-102" value="+ mostrar_menu_dentro_app()" style="text;align=left;verticalAlign=top;spacingLeft=4;spacingRight=4;overflow=hidden;rotatable=0;points=[[0,0.5],[1,0.5]];portConstraint=eastwest;" vertex="1" parent="wKArxqeJ5DqCfV5X6drG-90">
          <mxGeometry y="320" width="670" height="26" as="geometry" />
        </mxCell>
        <mxCell id="wKArxqeJ5DqCfV5X6drG-103" value="+ ingresar_vehiculo()" style="text;align=left;verticalAlign=top;spacingLeft=4;spacingRight=4;overflow=hidden;rotatable=0;points=[[0,0.5],[1,0.5]];portConstraint=eastwest;" vertex="1" parent="wKArxqeJ5DqCfV5X6drG-90">
          <mxGeometry y="346" width="670" height="26" as="geometry" />
        </mxCell>
        <mxCell id="wKArxqeJ5DqCfV5X6drG-104" value="+ ingresar_vehiculo_accion()" style="text;align=left;verticalAlign=top;spacingLeft=4;spacingRight=4;overflow=hidden;rotatable=0;points=[[0,0.5],[1,0.5]];portConstraint=eastwest;" vertex="1" parent="wKArxqeJ5DqCfV5X6drG-90">
          <mxGeometry y="372" width="670" height="26" as="geometry" />
        </mxCell>
        <mxCell id="wKArxqeJ5DqCfV5X6drG-105" value="+ retirar_vehiculo()" style="text;align=left;verticalAlign=top;spacingLeft=4;spacingRight=4;overflow=hidden;rotatable=0;points=[[0,0.5],[1,0.5]];portConstraint=eastwest;" vertex="1" parent="wKArxqeJ5DqCfV5X6drG-90">
          <mxGeometry y="398" width="670" height="26" as="geometry" />
        </mxCell>
        <mxCell id="wKArxqeJ5DqCfV5X6drG-106" value="+ retirar_vehiculo_accion()" style="text;align=left;verticalAlign=top;spacingLeft=4;spacingRight=4;overflow=hidden;rotatable=0;points=[[0,0.5],[1,0.5]];portConstraint=eastwest;" vertex="1" parent="wKArxqeJ5DqCfV5X6drG-90">
          <mxGeometry y="424" width="670" height="26" as="geometry" />
        </mxCell>
        <mxCell id="wKArxqeJ5DqCfV5X6drG-107" value="+ reservar_celda_parqueadero()" style="text;align=left;verticalAlign=top;spacingLeft=4;spacingRight=4;overflow=hidden;rotatable=0;points=[[0,0.5],[1,0.5]];portConstraint=eastwest;" vertex="1" parent="wKArxqeJ5DqCfV5X6drG-90">
          <mxGeometry y="450" width="670" height="26" as="geometry" />
        </mxCell>
        <mxCell id="wKArxqeJ5DqCfV5X6drG-110" value="+ reservar_celda_accion()" style="text;align=left;verticalAlign=top;spacingLeft=4;spacingRight=4;overflow=hidden;rotatable=0;points=[[0,0.5],[1,0.5]];portConstraint=eastwest;" vertex="1" parent="wKArxqeJ5DqCfV5X6drG-90">
          <mxGeometry y="476" width="670" height="26" as="geometry" />
        </mxCell>
        <mxCell id="wKArxqeJ5DqCfV5X6drG-111" value="+ cerrar_sesion()" style="text;align=left;verticalAlign=top;spacingLeft=4;spacingRight=4;overflow=hidden;rotatable=0;points=[[0,0.5],[1,0.5]];portConstraint=eastwest;" vertex="1" parent="wKArxqeJ5DqCfV5X6drG-90">
          <mxGeometry y="502" width="670" height="26" as="geometry" />
        </mxCell>
        <mxCell id="wKArxqeJ5DqCfV5X6drG-112" value="+ limpiar_frame()" style="text;align=left;verticalAlign=top;spacingLeft=4;spacingRight=4;overflow=hidden;rotatable=0;points=[[0,0.5],[1,0.5]];portConstraint=eastwest;" vertex="1" parent="wKArxqeJ5DqCfV5X6drG-90">
          <mxGeometry y="528" width="670" height="26" as="geometry" />
        </mxCell>
        <mxCell id="wKArxqeJ5DqCfV5X6drG-115" style="edgeStyle=orthogonalEdgeStyle;rounded=0;orthogonalLoop=1;jettySize=auto;html=1;entryX=1;entryY=0.5;entryDx=0;entryDy=0;" edge="1" parent="WIyWlLk6GJQsqaUBKTNV-1" source="wKArxqeJ5DqCfV5X6drG-67" target="wKArxqeJ5DqCfV5X6drG-18">
          <mxGeometry relative="1" as="geometry" />
        </mxCell>
        <mxCell id="wKArxqeJ5DqCfV5X6drG-116" style="edgeStyle=orthogonalEdgeStyle;rounded=0;orthogonalLoop=1;jettySize=auto;html=1;entryX=0.213;entryY=-0.001;entryDx=0;entryDy=0;entryPerimeter=0;" edge="1" parent="WIyWlLk6GJQsqaUBKTNV-1" source="wKArxqeJ5DqCfV5X6drG-28" target="zkfFHV4jXpPFQw0GAbJ--0">
          <mxGeometry relative="1" as="geometry" />
        </mxCell>
        <mxCell id="wKArxqeJ5DqCfV5X6drG-117" style="edgeStyle=orthogonalEdgeStyle;rounded=0;orthogonalLoop=1;jettySize=auto;html=1;entryX=1.001;entryY=0.907;entryDx=0;entryDy=0;entryPerimeter=0;" edge="1" parent="WIyWlLk6GJQsqaUBKTNV-1" source="wKArxqeJ5DqCfV5X6drG-55" target="wKArxqeJ5DqCfV5X6drG-4">
          <mxGeometry relative="1" as="geometry" />
        </mxCell>
        <mxCell id="wKArxqeJ5DqCfV5X6drG-118" style="edgeStyle=orthogonalEdgeStyle;rounded=0;orthogonalLoop=1;jettySize=auto;html=1;entryX=1.001;entryY=-0.049;entryDx=0;entryDy=0;entryPerimeter=0;" edge="1" parent="WIyWlLk6GJQsqaUBKTNV-1" source="wKArxqeJ5DqCfV5X6drG-84" target="zkfFHV4jXpPFQw0GAbJ--5">
          <mxGeometry relative="1" as="geometry" />
        </mxCell>
        <mxCell id="wKArxqeJ5DqCfV5X6drG-127" style="edgeStyle=orthogonalEdgeStyle;rounded=0;orthogonalLoop=1;jettySize=auto;html=1;entryX=0.5;entryY=1;entryDx=0;entryDy=0;" edge="1" parent="WIyWlLk6GJQsqaUBKTNV-1" source="wKArxqeJ5DqCfV5X6drG-123" target="wKArxqeJ5DqCfV5X6drG-61">
          <mxGeometry relative="1" as="geometry" />
        </mxCell>
        <mxCell id="wKArxqeJ5DqCfV5X6drG-123" value="VehiculoInexistenteEnParqueadero(Exception)" style="swimlane;fontStyle=0;align=center;verticalAlign=top;childLayout=stackLayout;horizontal=1;startSize=26;horizontalStack=0;resizeParent=1;resizeLast=0;collapsible=1;marginBottom=0;rounded=0;shadow=0;strokeWidth=1;" vertex="1" parent="WIyWlLk6GJQsqaUBKTNV-1">
          <mxGeometry x="890" y="670" width="310" height="70" as="geometry">
            <mxRectangle x="340" y="380" width="170" height="26" as="alternateBounds" />
          </mxGeometry>
        </mxCell>
        <mxCell id="wKArxqeJ5DqCfV5X6drG-124" style="edgeStyle=orthogonalEdgeStyle;rounded=0;orthogonalLoop=1;jettySize=auto;html=1;exitX=0;exitY=0.5;exitDx=0;exitDy=0;" edge="1" parent="wKArxqeJ5DqCfV5X6drG-123" source="wKArxqeJ5DqCfV5X6drG-125">
          <mxGeometry relative="1" as="geometry">
            <mxPoint x="-10" y="39" as="targetPoint" />
          </mxGeometry>
        </mxCell>
        <mxCell id="wKArxqeJ5DqCfV5X6drG-125" value="+ mensaje : str" style="text;align=left;verticalAlign=top;spacingLeft=4;spacingRight=4;overflow=hidden;rotatable=0;points=[[0,0.5],[1,0.5]];portConstraint=eastwest;" vertex="1" parent="wKArxqeJ5DqCfV5X6drG-123">
          <mxGeometry y="26" width="310" height="26" as="geometry" />
        </mxCell>
        <mxCell id="wKArxqeJ5DqCfV5X6drG-126" value="" style="line;html=1;strokeWidth=1;align=left;verticalAlign=middle;spacingTop=-1;spacingLeft=3;spacingRight=3;rotatable=0;labelPosition=right;points=[];portConstraint=eastwest;" vertex="1" parent="wKArxqeJ5DqCfV5X6drG-123">
          <mxGeometry y="52" width="310" height="8" as="geometry" />
        </mxCell>
      </root>
    </mxGraphModel>
  </diagram>
</mxfile>
